PathFileType  4	(X/Y/Z) W:\OA_GaitRetraining\ACL OpenCap study\PS1\Edited\
DataRate	CameraRate	NumFrames	NumMarkers	Units	OrigDataRate	OrigDataStartFrame	OrigNumFrames
  200.0		  200.0		    8		     46		 mm	  200.0	      19	    147
Frame#	Time	C7			R_Shoulder			L_Shoulder			Sternum			R_humerus			R_elbow_med			R_elbow_lat			R_forearm			R_wrist_radius			R_wrist_ulna			L_humerus			L_elbow_med			L_elbow_lat			L_forearm			L_wrist_radius			L_wrist_ulna			r.ASIS			r.PSIS			L.ASIS			L.PSIS			r_thigh1			r_thigh2			r_thigh3			r_thigh4			r_thigh5			r_knee			r_shank_antsup			r_sh2			r_sh3			r_sh4			r_ankle			r_calc			r_5meta			r_toe			L_thigh1			L_thigh2			L_thigh3			L_thigh4			L_knee			L_shank_antsup			L_sh2			L_sh3			L_ankle			L_calc			L_5meta			L_toe			
		X1	Y1	Z1	X2	Y2	Z2	X3	Y3	Z3	X4	Y4	Z4	X5	Y5	Z5	X6	Y6	Z6	X7	Y7	Z7	X8	Y8	Z8	X9	Y9	Z9	X10	Y10	Z10	X11	Y11	Z11	X12	Y12	Z12	X13	Y13	Z13	X14	Y14	Z14	X15	Y15	Z15	X16	Y16	Z16	X17	Y17	Z17	X18	Y18	Z18	X19	Y19	Z19	X20	Y20	Z20	X21	Y21	Z21	X22	Y22	Z22	X23	Y23	Z23	X24	Y24	Z24	X25	Y25	Z25	X26	Y26	Z26	X27	Y27	Z27	X28	Y28	Z28	X29	Y29	Z29	X30	Y30	Z30	X31	Y31	Z31	X32	Y32	Z32	X33	Y33	Z33	X34	Y34	Z34	X35	Y35	Z35	X36	Y36	Z36	X37	Y37	Z37	X38	Y38	Z38	X39	Y39	Z39	X40	Y40	Z40	X41	Y41	Z41	X42	Y42	Z42	X43	Y43	Z43	X44	Y44	Z44	X45	Y45	Z45	X46	Y46	Z46	

19	0.09000	-108.783	1279.777	161.975	33.297	1220.824	86.055	-247.930	1240.874	62.278	-97.995	1186.329	31.689	158.473	1079.102	244.621	106.584	1004.921	340.826	174.784	1008.287	323.002	184.774	877.029	243.520	179.194	791.848	245.094	165.788	813.821	199.701	-355.651	1117.727	136.586	-342.309	1001.052	279.214	-411.558	1007.097	242.515	-397.010	948.967	169.859	-335.675	847.647	91.394	-380.347	829.291	112.631	24.504	818.794	117.042	-82.081	852.399	302.692	-228.750	820.345	105.368	-146.361	853.105	304.598	65.390	721.754	53.754	53.596	646.486	-44.044	78.938	597.198	-32.036	94.412	633.657	120.626	76.069	565.078	27.128	51.719	468.661	-124.462	54.385	369.585	-179.260	26.732	258.111	-210.358	54.295	347.645	-105.353	23.280	236.932	-127.205	-4.412	90.493	-205.544	-67.945	52.801	-154.261	21.041	50.320	-314.590	-24.308	100.065	-352.113	-270.352	712.972	30.386	-260.396	620.456	-70.368	-314.717	634.504	110.125	-295.473	542.965	4.382	-277.767	463.424	-101.414	-263.202	317.673	-53.928	-269.819	377.435	13.956	-234.238	286.953	86.359	-236.387	191.119	121.918	-194.325	233.139	183.572	-248.707	76.292	123.599	-185.141	68.444	77.279
20	0.09500	-107.581	1277.612	145.412	34.182	1219.334	69.710	-246.699	1239.389	46.019	-96.694	1185.058	15.228	159.970	1078.681	227.607	108.491	1003.233	323.996	176.644	1006.819	305.625	185.729	876.767	224.470	180.431	791.327	224.922	166.465	813.519	180.429	-355.253	1117.587	120.457	-342.050	1003.015	265.342	-410.817	1007.922	227.941	-396.679	946.832	157.887	-336.066	841.364	82.850	-380.993	824.178	105.561	25.737	817.195	100.582	-82.631	851.896	285.404	-226.702	819.456	88.182	-146.904	852.111	287.413	65.521	719.057	36.153	53.805	641.401	-58.669	80.854	593.232	-47.517	96.069	632.585	104.319	77.950	562.304	12.245	52.729	463.796	-139.130	54.553	364.725	-194.183	26.192	253.802	-226.813	54.536	341.546	-119.924	22.816	231.413	-143.818	-5.450	88.945	-225.713	-68.090	53.399	-171.396	16.634	47.316	-333.694	-30.732	95.982	-371.201	-268.513	714.535	14.337	-259.412	623.075	-87.398	-314.397	635.466	92.460	-296.590	545.397	-14.463	-279.344	465.545	-122.101	-263.961	321.089	-71.720	-270.464	382.428	-5.335	-235.514	293.495	69.270	-238.092	197.567	106.416	-196.731	241.038	167.044	-250.052	81.447	111.873	-186.643	72.522	66.095
21	0.10000	-106.506	1275.266	129.167	35.039	1217.627	53.499	-245.551	1237.613	29.851	-95.564	1183.566	-1.164	161.167	1077.741	210.967	110.317	1001.143	306.877	178.749	1005.017	288.190	186.265	875.678	205.765	181.808	790.254	205.100	167.268	812.906	160.887	-354.621	1117.226	104.958	-341.850	1004.738	251.706	-409.824	1008.187	214.044	-396.852	943.895	146.658	-336.464	834.422	77.449	-381.896	818.799	99.379	27.149	815.661	83.754	-82.981	851.023	267.971	-224.717	818.395	71.054	-147.255	850.873	270.118	65.284	716.110	18.165	54.634	636.683	-75.454	82.754	589.084	-63.425	97.380	631.312	87.685	79.662	559.282	-3.153	53.591	458.566	-153.492	54.526	359.528	-208.909	25.504	249.278	-242.813	54.699	335.456	-134.943	22.211	225.864	-160.162	-6.695	87.574	-242.712	-69.556	53.628	-185.655	12.381	44.008	-348.394	-38.255	89.074	-388.602	-266.411	715.821	-2.075	-257.384	625.523	-105.397	-314.293	636.259	74.618	-297.492	547.462	-33.249	-280.558	467.673	-142.971	-264.690	324.061	-89.720	-271.745	386.730	-24.812	-237.101	299.632	51.967	-240.102	202.923	91.404	-198.190	245.778	152.911	-253.994	86.898	97.641	-190.886	78.173	50.746
22	0.10500	-105.492	1272.904	113.009	35.901	1215.750	37.298	-244.554	1235.553	13.670	-94.392	1181.906	-17.480	162.758	1076.550	193.759	112.021	998.584	289.558	180.750	1003.203	270.275	187.397	874.474	186.519	183.264	788.844	185.069	168.251	811.937	141.208	-354.296	1116.693	89.827	-341.736	1006.087	238.131	-408.954	1008.438	200.012	-396.929	940.932	135.728	-337.326	827.226	71.649	-383.392	813.182	94.300	28.441	813.654	67.134	-82.884	849.889	250.477	-222.884	817.052	53.979	-147.572	849.234	252.962	64.785	712.645	0.166	54.868	631.315	-91.908	84.563	584.771	-79.717	100.527	630.529	69.923	81.358	556.013	-18.901	54.178	452.906	-167.485	54.450	354.162	-223.586	24.709	244.412	-258.350	54.842	329.257	-149.860	21.421	220.088	-175.940	-9.081	84.653	-255.199	-71.559	54.867	-197.545	9.445	40.791	-359.813	-42.903	80.492	-404.185	-264.240	716.581	-18.847	-255.174	627.074	-123.830	-313.888	636.980	56.603	-298.217	549.178	-52.008	-281.533	469.752	-163.819	-265.401	326.894	-107.728	-273.618	390.677	-44.161	-238.969	305.161	34.493	-242.242	209.380	76.797	-197.837	248.937	139.638	-258.430	93.498	79.259	-195.745	84.929	30.812
23	0.11000	-104.468	1270.512	96.961	36.832	1213.757	21.117	-243.678	1233.271	-2.477	-93.331	1180.152	-33.777	164.596	1075.126	176.429	113.602	995.558	271.983	182.961	1001.032	252.303	188.651	872.856	167.297	184.795	787.038	164.917	169.450	810.597	121.387	-353.841	1115.540	75.001	-341.455	1007.238	224.855	-408.120	1008.405	186.242	-397.126	937.612	125.202	-338.246	819.610	67.163	-384.716	807.501	89.753	29.600	811.277	50.673	-82.316	848.479	233.126	-221.081	815.370	36.914	-147.476	847.666	235.633	64.306	708.908	-18.375	55.000	625.758	-108.400	85.947	580.166	-96.266	101.821	628.515	51.489	82.873	552.484	-34.887	54.418	447.019	-181.226	54.307	348.651	-238.449	23.314	239.359	-272.919	54.963	323.512	-164.830	20.757	214.922	-190.757	-12.226	82.274	-264.782	-73.351	57.774	-203.628	7.505	38.126	-363.500	-46.779	66.974	-415.550	-262.114	717.080	-36.017	-253.781	628.167	-141.503	-313.307	637.638	38.411	-298.822	550.542	-70.807	-281.721	471.448	-184.176	-265.885	329.767	-125.960	-275.751	393.913	-63.277	-240.870	309.490	16.402	-244.072	215.535	60.376	-199.491	250.962	122.682	-262.992	99.542	57.024	-200.515	91.034	9.229
24	0.11500	-103.393	1267.998	80.924	37.839	1211.754	4.990	-242.877	1230.735	-18.687	-92.323	1178.249	-50.142	166.126	1072.909	159.385	115.083	992.081	254.140	185.320	998.746	234.404	190.130	870.722	148.007	186.404	785.214	144.772	170.773	808.946	101.482	-353.508	1114.295	60.529	-341.176	1007.956	211.201	-406.797	1007.979	172.929	-397.492	934.049	115.023	-339.751	811.985	62.837	-386.423	801.695	85.680	30.415	808.340	34.774	-81.324	846.833	216.078	-219.061	813.598	19.910	-147.293	845.716	218.760	63.627	704.732	-36.881	54.057	620.721	-126.903	86.472	575.311	-113.177	103.244	625.857	34.195	84.517	548.499	-51.299	54.637	441.115	-194.655	53.558	343.648	-253.868	19.513	235.583	-286.716	54.977	319.832	-179.965	19.847	211.248	-203.982	-16.505	83.039	-268.476	-76.437	57.792	-205.032	9.598	36.586	-363.002	-46.801	57.082	-420.538	-259.982	717.621	-53.556	-252.913	629.444	-159.141	-312.491	637.993	19.985	-298.994	551.738	-89.753	-281.798	473.517	-204.940	-267.042	332.504	-145.669	-278.095	396.376	-82.639	-242.836	312.161	-2.817	-246.345	219.155	41.120	-200.034	252.207	103.907	-267.869	104.177	34.403	-205.955	95.200	-12.613
25	0.12000	-102.330	1265.392	64.950	38.871	1209.739	-11.149	-242.170	1228.149	-34.932	-91.316	1176.317	-66.479	167.519	1070.136	142.434	116.511	988.127	236.079	187.450	996.117	216.107	191.729	868.183	128.790	188.008	782.562	124.343	171.625	806.487	81.959	-352.979	1112.724	46.592	-340.788	1008.348	197.441	-405.798	1007.400	159.634	-398.024	930.249	105.427	-341.532	804.301	59.479	-388.382	796.067	82.793	31.019	805.068	19.442	-79.878	845.030	199.882	-217.844	811.281	3.314	-146.868	843.668	202.366	64.460	698.904	-55.922	53.848	616.266	-145.341	85.786	570.733	-131.110	103.678	622.583	15.859	85.776	544.633	-68.842	55.736	436.865	-209.673	51.908	340.931	-270.194	15.927	231.618	-297.236	54.184	320.052	-195.335	19.212	210.381	-214.653	-21.791	84.446	-266.954	-80.402	56.828	-204.965	6.688	39.497	-362.694	-47.893	65.432	-417.405	-257.324	717.277	-70.918	-251.597	630.342	-177.372	-312.166	637.804	2.040	-298.692	552.820	-108.960	-281.503	475.580	-225.563	-267.920	335.025	-166.037	-279.588	398.132	-102.505	-244.951	313.221	-23.388	-249.148	221.370	20.076	-200.847	252.453	83.525	-273.748	107.519	12.567	-212.078	96.833	-34.398
26	0.12500	-101.313	1262.812	49.032	40.134	1207.786	-27.279	-241.637	1225.551	-51.075	-90.360	1174.355	-82.749	169.145	1066.859	125.093	117.963	983.833	217.870	189.418	993.070	197.582	193.499	865.251	109.505	189.633	779.938	104.028	174.541	805.216	61.847	-352.743	1110.825	32.379	-340.210	1008.451	183.628	-404.726	1006.559	146.435	-398.543	926.406	95.815	-343.704	796.716	56.619	-390.566	790.594	80.701	31.325	801.479	4.790	-78.093	843.083	184.636	-215.565	808.999	-12.269	-146.137	841.452	186.553	64.146	696.253	-74.339	55.481	614.785	-165.068	84.762	567.918	-150.234	104.637	619.620	-3.888	85.039	539.116	-86.386	57.962	438.528	-228.852	49.470	341.731	-286.368	12.432	231.120	-307.190	53.435	324.154	-210.437	18.299	213.246	-223.851	-25.406	86.063	-266.178	-81.822	57.811	-205.535	2.524	43.286	-362.631	-53.145	67.178	-408.234	-255.089	717.675	-88.575	-249.912	631.836	-196.034	-310.729	638.074	-16.922	-297.958	553.817	-128.416	-280.949	477.669	-245.981	-269.285	337.399	-187.856	-280.837	399.510	-123.092	-247.253	313.117	-45.156	-252.368	222.855	-1.471	-202.782	251.932	61.228	-280.416	110.032	-9.224	-220.167	97.966	-58.618
